<mxfile host="app.diagrams.net" modified="2023-10-09T02:03:09.354Z" agent="Mozilla/5.0 (Windows NT 10.0; Win64; x64) AppleWebKit/537.36 (KHTML, like Gecko) Chrome/117.0.0.0 Safari/537.36" version="22.0.4" etag="p3XiVeIBpM3nqGS_Z_kJ" type="github">
  <diagram name="Page-1" id="4N63WYU4A7OHBLlhn9Hj">
    <mxGraphModel>
      <root>
        <mxCell id="0" />
        <mxCell id="1" parent="0" />
      </root>
    </mxGraphModel>
  </diagram>
</mxfile>
